<?xml version="1.0" encoding="utf-8"?>
<!-- Generator: Adobe Illustrator 22.1.0, SVG Export Plug-In . SVG Version: 6.00 Build 0)  -->
<svg version="1.1" id="Layer_1" xmlns="http://www.w3.org/2000/svg" xmlns:xlink="http://www.w3.org/1999/xlink" x="0px" y="0px"
	 viewBox="0 0 154.5 55.1" style="enable-background:new 0 0 154.5 55.1;" xml:space="preserve">
<style type="text/css">
	.st0{fill:#FFFFFF;}
	.st1{fill:none;}
</style>
<g>
	<g>
		<path d="M57.2,7.1v9c0,3,1.3,4.4,3.2,4.4c2,0,3.3-1.4,3.3-4.4v-9h2.8v8.9c0,4.8-2.5,6.9-6.2,6.9c-3.6,0-5.9-2-5.9-6.9V7.1H57.2z"
			/>
		<path d="M69.5,14.7c0-1.3,0-2.4-0.1-3.3h2.5l0.1,1.7h0.1c0.5-0.9,1.7-1.9,3.6-1.9c2,0,4,1.3,4,4.8v6.7h-2.8v-6.3
			c0-1.6-0.6-2.8-2.1-2.8c-1.1,0-1.9,0.8-2.2,1.7c-0.1,0.2-0.1,0.6-0.1,0.9v6.6h-2.8V14.7z"/>
		<path d="M82.7,22.6V11.4h2.8v11.2H82.7z M84.1,9.6c-1,0-1.6-0.7-1.6-1.6c0-0.9,0.7-1.6,1.7-1.6c1,0,1.7,0.7,1.7,1.6
			C85.8,8.9,85.1,9.6,84.1,9.6L84.1,9.6z"/>
		<path d="M90.4,11.4l1.8,5.7c0.3,1,0.6,1.9,0.8,2.8H93c0.2-0.9,0.5-1.8,0.8-2.8l1.8-5.7h3l-4.3,11.2h-2.8l-4.2-11.2H90.4z"/>
		<path d="M101.9,15.7c0.1-1.1,0.9-2.7,2.6-2.7c1.9,0,2.3,1.7,2.3,2.7H101.9z M109.4,17.7c0.1-0.3,0.1-0.7,0.1-1.2
			c0-2.5-1.2-5.4-4.8-5.4c-3.6,0-5.5,2.9-5.5,6c0,3.4,2.1,5.7,5.8,5.7c1.6,0,3-0.3,3.9-0.7l-0.4-1.9c-0.9,0.3-1.8,0.5-3.1,0.5
			c-1.8,0-3.4-0.9-3.5-2.9L109.4,17.7z"/>
		<path d="M111.8,15c0-1.5,0-2.6-0.1-3.6h2.5l0.1,2.1h0.1c0.6-1.6,1.9-2.4,3.1-2.4c0.3,0,0.4,0,0.7,0.1v2.7
			c-0.3-0.1-0.5-0.1-0.9-0.1c-1.3,0-2.3,0.9-2.5,2.1c0,0.3-0.1,0.5-0.1,0.9v5.8h-2.8L111.8,15z"/>
		<path d="M119.8,20c0.6,0.4,1.8,0.8,2.9,0.8c1.2,0,1.8-0.5,1.8-1.3c0-0.8-0.5-1.1-1.8-1.6c-2.2-0.8-3.1-1.9-3.1-3.3
			c0-2,1.6-3.5,4.2-3.5c1.2,0,2.3,0.3,3,0.7l-0.6,2c-0.5-0.3-1.4-0.6-2.4-0.6c-1,0-1.6,0.5-1.6,1.2c0,0.7,0.5,1.1,2,1.6
			c2,0.7,3,1.8,3,3.4c0,2-1.6,3.5-4.5,3.5c-1.4,0-2.6-0.3-3.4-0.8L119.8,20z"/>
		<path d="M129.6,22.6V11.4h2.8v11.2H129.6z M130.9,9.6c-1,0-1.6-0.7-1.6-1.6c0-0.9,0.7-1.6,1.7-1.6c1,0,1.7,0.7,1.7,1.6
			C132.6,8.9,132,9.6,130.9,9.6L130.9,9.6z"/>
		<path d="M139.1,8.5v2.9h2.7v2.1h-2.7v4.9c0,1.4,0.4,2.1,1.4,2.1c0.5,0,0.8,0,1.1-0.1l0.1,2.2c-0.4,0.2-1.2,0.3-2.1,0.3
			c-1,0-1.9-0.4-2.4-0.9c-0.6-0.6-0.9-1.7-0.9-3.1v-5.3h-1.6v-2.1h1.6V9.3L139.1,8.5z"/>
		<path d="M146.4,11.4l2,6c0.2,0.7,0.5,1.5,0.6,2.2h0.1c0.2-0.6,0.4-1.5,0.6-2.2l1.8-6h3l-2.8,7.6c-1.5,4.2-2.6,6-3.9,7.2
			c-1.1,1-2.3,1.3-3,1.4l-0.6-2.4c0.5-0.1,1.1-0.4,1.6-0.8c0.5-0.4,1.2-1,1.6-1.8c0.1-0.2,0.2-0.4,0.2-0.5c0-0.1,0-0.3-0.1-0.6
			l-4.1-10.3H146.4z"/>
		<path d="M59.2,43.1c-1.7,0-2.8-1.6-2.8-3.8c0-1.9,0.8-3.8,2.8-3.8c2,0,2.7,2,2.7,3.8C62,41.5,60.8,43.1,59.2,43.1L59.2,43.1z
			 M59.2,45.2c2.8,0,5.7-1.8,5.7-6c0-3.4-2.2-5.7-5.6-5.7c-3.4,0-5.8,2.3-5.8,5.9C53.5,43,56,45.2,59.2,45.2L59.2,45.2z"/>
		<path d="M67.5,44.9v-9.1H66v-2.1h1.5v-0.5c0-1.5,0.4-2.9,1.4-3.8c0.8-0.8,1.9-1.1,2.9-1.1c0.8,0,1.4,0.1,1.8,0.3l-0.2,2.2
			c-0.3-0.1-0.7-0.2-1.2-0.2c-1.4,0-1.9,1.2-1.9,2.5v0.6h2.4v2.1h-2.4v9.1H67.5z"/>
		<path d="M83.1,44.9l-5-15.5h3.1l2.1,7.1c0.6,2,1.1,3.8,1.5,5.6h0.1c0.4-1.8,1-3.7,1.6-5.6l2.3-7.1h3l-5.4,15.5H83.1z"/>
		<path d="M93.4,44.9V33.7h2.8v11.2H93.4z M94.8,32c-1,0-1.6-0.7-1.6-1.6c0-0.9,0.7-1.6,1.7-1.6c1,0,1.7,0.7,1.7,1.6
			C96.5,31.3,95.9,32,94.8,32L94.8,32z"/>
		<path d="M107.5,44.6c-0.6,0.3-1.8,0.6-3.2,0.6c-3.5,0-5.8-2.3-5.8-5.7c0-3.4,2.3-6,6.2-6c1,0,2.1,0.2,2.7,0.5l-0.5,2.1
			c-0.5-0.2-1.1-0.4-2.1-0.4c-2.2,0-3.4,1.6-3.4,3.6c0,2.3,1.5,3.6,3.4,3.6c1,0,1.7-0.2,2.2-0.4L107.5,44.6z"/>
		<path d="M113.2,30.8v2.9h2.7v2.1h-2.7v4.9c0,1.4,0.4,2.1,1.4,2.1c0.5,0,0.8,0,1.1-0.1l0.1,2.2c-0.4,0.2-1.2,0.3-2.1,0.3
			c-1,0-1.9-0.4-2.4-0.9c-0.6-0.6-0.9-1.7-0.9-3.1v-5.3h-1.6v-2.1h1.6v-2.1L113.2,30.8z"/>
		<path d="M122.9,43.1c-1.7,0-2.8-1.6-2.8-3.8c0-1.9,0.8-3.8,2.8-3.8c2,0,2.7,2,2.7,3.8C125.6,41.5,124.5,43.1,122.9,43.1
			L122.9,43.1z M122.8,45.2c2.8,0,5.7-1.8,5.7-6c0-3.4-2.2-5.7-5.6-5.7c-3.4,0-5.8,2.3-5.8,5.9C117.2,43,119.7,45.2,122.8,45.2
			L122.8,45.2z"/>
		<path d="M130.9,37.3c0-1.5,0-2.6-0.1-3.6h2.5l0.1,2.1h0.1c0.6-1.6,1.9-2.4,3.1-2.4c0.3,0,0.4,0,0.7,0.1v2.7
			c-0.3-0.1-0.5-0.1-0.9-0.1c-1.3,0-2.3,0.9-2.5,2.1c0,0.3-0.1,0.6-0.1,0.9v5.8h-2.8L130.9,37.3z"/>
		<path d="M139.1,44.9V33.7h2.8v11.2H139.1z M140.5,32c-1,0-1.6-0.7-1.6-1.6c0-0.9,0.7-1.6,1.7-1.6c1,0,1.7,0.7,1.7,1.6
			C142.2,31.3,141.6,32,140.5,32L140.5,32z"/>
		<path d="M150.9,41c0,0.2,0,0.4-0.1,0.6c-0.3,0.8-1.1,1.6-2.2,1.6c-0.9,0-1.6-0.5-1.6-1.6c0-1.7,1.9-2.1,3.9-2.1V41z M153.7,38.2
			c0-2.5-1-4.7-4.6-4.7c-1.8,0-3.2,0.5-4.1,1l0.6,1.8c0.8-0.5,1.9-0.8,3-0.8c2,0,2.3,1.2,2.3,2v0.2c-4.1,0-6.6,1.4-6.6,4.2
			c0,1.7,1.3,3.3,3.5,3.3c1.4,0,2.6-0.6,3.3-1.5h0.1l0.2,1.2h2.6c-0.1-0.7-0.2-1.7-0.2-2.7V38.2z"/>
	</g>
	<g>
		<polygon class="st0" points="1.2,1 1.2,28.7 1.9,35.2 4.7,41.7 9.1,46.8 14.3,51 18.9,53 22.2,53.8 26,53.2 30.5,51.3 33.8,48.9 
			37.1,45.9 40.4,41.6 42.1,37.8 43.3,33.8 43.7,30.2 43.7,26.4 43.7,1 		"/>
		<g>
			<path class="st1" d="M8.4,45.6c0,0,0.1,0.1,0.1,0.1h27.8c0,0,0.1-0.1,0.1-0.1c0.3-0.3,0.5-0.6,0.7-0.8H7.7
				C7.9,45,8.2,45.3,8.4,45.6z"/>
			<path class="st1" d="M43,1.6c-1.1,0-40,0-41.1,0c0,0.7,0,10.1,0,17.8H43C43,11.7,43,2.3,43,1.6z"/>
			<path class="st1" d="M14.8,50.7c0.1,0,0.1,0.1,0.2,0.1h14.9c0.1,0,0.1-0.1,0.2-0.1c0.4-0.3,0.9-0.5,1.3-0.8h-18
				C13.9,50.2,14.3,50.4,14.8,50.7z"/>
		</g>
		<g>
			<path d="M35.4,25.2h0.3c-0.1-0.1-0.2-0.2-0.3-0.3L35.4,25.2z"/>
			<path d="M9.5,25c-0.1,0.1-0.2,0.2-0.3,0.3h0.3L9.5,25z"/>
			<path d="M43.6,0.4H0.6v19.9v0.1v4.3v0.3v0.7v0.2v2.8v0.7c0,0.1,0,0.2,0,0.3c0,1.1,0.1,2.2,0.3,3.3c0,0.3,0.1,0.6,0.2,1
				c0.2,0.9,0.4,1.7,0.6,2.5c0.1,0.2,0.1,0.5,0.2,0.7c0.1,0.3,0.2,0.6,0.4,1c0.2,0.5,0.4,1.1,0.7,1.6c0.2,0.3,0.3,0.6,0.5,0.9
				c0.1,0.2,0.3,0.5,0.4,0.7c0.2,0.3,0.4,0.6,0.6,1c0.5,0.9,1.1,1.7,1.8,2.5c0.2,0.3,0.5,0.6,0.7,0.8c0,0,0.1,0.1,0.1,0.1
				c0.2,0.3,0.5,0.5,0.7,0.8c1.1,1.2,2.4,2.3,3.6,3.3c0.1,0,0.1,0.1,0.2,0.1c0.4,0.3,0.8,0.6,1.2,0.8c0.1,0,0.1,0.1,0.2,0.1
				c1.4,1,2.9,1.7,4.3,2.3c0.9,0.4,1.7,0.6,2.5,0.8c1,0.3,2,0.4,2.8,0.4c0.9,0,1.8-0.1,2.8-0.4c0.8-0.2,1.7-0.5,2.5-0.8
				c1.4-0.6,2.8-1.4,4.3-2.3c0.1,0,0.1-0.1,0.2-0.1c0.4-0.3,0.8-0.5,1.2-0.8c0.1,0,0.1-0.1,0.2-0.1c1.2-1,2.5-2,3.6-3.3
				c0.2-0.3,0.5-0.5,0.7-0.8c0,0,0.1-0.1,0.1-0.1c0.2-0.3,0.5-0.6,0.7-0.8c0.6-0.8,1.2-1.6,1.8-2.5c0.2-0.3,0.4-0.6,0.6-1
				c0.1-0.2,0.3-0.5,0.4-0.7c0.2-0.3,0.3-0.6,0.5-0.9c0.2-0.5,0.5-1.1,0.7-1.6c0.1-0.3,0.2-0.6,0.3-1c0.1-0.3,0.2-0.7,0.3-1
				c0.2-0.7,0.4-1.5,0.5-2.3c0.1-0.3,0.1-0.6,0.2-1c0.2-1.1,0.2-2.1,0.3-3.3c0-0.1,0-0.2,0-0.3v-0.7v-2.8v-0.2v-0.7v-0.3v-4.3v-0.1
				V0.4H43.6z M1.8,24.6c0-0.1,0-0.2,0-0.4H9c-0.2,0.3-0.6,0.6-1,1H1.8V24.6z M37.7,29.4c0,0.3,0,0.6,0,0.9
				c-0.1,1.3-0.1,2.7-0.2,4.2c0,0.3,0,0.6,0,1c-0.1,1.6-0.1,3-0.2,4.2c0,0.4,0,0.7,0,0.9c0,0.6,0,0.9,0,1c-1.6,0.2-9.3,1.2-12.8-1
				c-0.4-0.2-0.7-0.5-1-0.8c0,0-0.1-0.1-0.1-0.1c-0.5-0.6-0.6-1.3-0.6-1.3s0.3-0.5,0.8-0.7c0.9-0.6,3-1.2,6.7,1.3
				c0,0,0.7,0.5,1.7,0.8c0.8,0.3,1.8,0.4,2.8,0c0.1,0,0.2-0.1,0.3-0.1l0.2-0.1l0.1-4l0-1l0.1-4.2l0-0.9l0.1-4.2l0-0.3
				c0.1,0.1,0.2,0.2,0.3,0.3c0.5,0.5,1.2,1.1,2.2,1.6C37.8,26.9,37.8,28,37.7,29.4z M25.2,42c-0.4,0.8-1.3,1.2-2.8,1.2c0,0,0,0,0,0
				v0c-1.4,0-2.3-0.5-2.7-1.2c0.9-0.4,1.6-0.9,2.1-1.4h0c0.3-0.2,0.5-0.5,0.7-0.8c0.2,0.3,0.4,0.6,0.7,0.8h0
				C23.6,41.1,24.3,41.5,25.2,42z M7.2,29.4C7.1,28,7,26.9,7,26.8c0.9-0.4,1.6-1,2.2-1.6c0.1-0.1,0.2-0.2,0.3-0.3l0,0.3l0.1,4.2
				l0,0.9l0.1,4.2l0,1l0.1,4l0.2,0.1c0.1,0,0.2,0.1,0.3,0.1c1,0.4,2,0.3,2.8,0c1-0.3,1.7-0.8,1.7-0.8c3.7-2.5,5.8-1.9,6.7-1.3
				c0.5,0.3,0.8,0.7,0.8,0.7s-0.2,0.7-0.6,1.4c0,0-0.1,0.1-0.1,0.1c-0.3,0.3-0.6,0.6-1,0.8c-3.5,2.2-11.2,1.3-12.8,1
				c0-0.1,0-0.5,0-1c0-0.3,0-0.6,0-0.9c-0.1-1.1-0.1-2.6-0.2-4.2c0-0.3,0-0.6,0-1c-0.1-1.4-0.1-2.9-0.2-4.2
				C7.2,30,7.2,29.7,7.2,29.4z M10.2,24.4c1.4,0.5,2.6,0.3,3.5-0.1c0.8-0.3,1.4-0.8,1.5-0.9c4.2-2.6,6.4-0.2,6.8,0.3v0.6v1v4.2v0.9
				v4.2v1V37c-1.1-0.8-3.5-1.7-7.8,1.2c0,0-1.9,1.4-3.8,0.7c0-0.2,0-1.5-0.1-3.4c0-0.3,0-0.6,0-1c0-1.3-0.1-2.8-0.1-4.2
				c0-0.3,0-0.6,0-0.9c0-1.6-0.1-3.1-0.1-4.2C10.3,24.9,10.3,24.6,10.2,24.4z M22.9,37v-1.5v-1v-4.2v-0.9v-4.2v-1v-0.6
				c0.4-0.6,2.6-2.8,6.8-0.3c0.1,0.1,0.7,0.5,1.5,0.9c0.9,0.4,2.2,0.6,3.5,0.1c0,0.2,0,0.5,0,0.8c0,1,0,2.5-0.1,4.2
				c0,0.3,0,0.6,0,0.9c0,1.4-0.1,2.9-0.1,4.2c0,0.3,0,0.6,0,1c0,1.9-0.1,3.2-0.1,3.4c-1.9,0.7-3.8-0.7-3.8-0.7
				C26.4,35.3,24,36.2,22.9,37z M1.9,30.3c0-0.3,0-0.5,0-0.8c0-0.1,0-0.1,0-0.2h4.5l0,0.9H1.9z M2.7,35.5c-0.1-0.3-0.2-0.6-0.2-1
				h4.2l0,1H2.7z M4.8,40.6c-0.2-0.3-0.3-0.6-0.5-0.9h2.6l0,0.9H4.8z M30.1,50.7c-0.1,0-0.1,0.1-0.2,0.1H15c-0.1,0-0.1-0.1-0.2-0.1
				c-0.5-0.3-0.9-0.5-1.4-0.8h18C31,50.2,30.5,50.4,30.1,50.7z M36.4,45.6c0,0-0.1,0.1-0.1,0.1H8.5c0,0-0.1-0.1-0.1-0.1
				c-0.3-0.3-0.5-0.6-0.7-0.8h29.5C36.9,45,36.7,45.3,36.4,45.6z M40,40.6h-2l0-0.9h2.5C40.4,39.9,40.2,40.3,40,40.6z M42.1,35.5
				h-3.9l0-1h4.1C42.3,34.8,42.2,35.2,42.1,35.5z M43,29.6c0,0.3,0,0.5,0,0.8h-4.4l0-0.9H43C43,29.5,43,29.5,43,29.6z M43,24.6
				c0,0.1,0,0.2,0,0.3c0,0.1,0,0.2,0,0.3h-6.1c-0.4-0.3-0.7-0.7-1-1h7C43,24.4,43,24.5,43,24.6z M43,19.4H1.8c0-7.7,0-17.1,0-17.8
				c1.1,0,40,0,41.1,0C43,2.3,43,11.7,43,19.4z"/>
		</g>
		<g>
			<path d="M17.1,13.2c-0.7,0.1-1.5,0.1-2.6-0.3c-5,0.2-7.2-1.6-7.4-3C6.9,9.1,7.5,8.3,8.5,8.2c0.4-0.1,0.6,0.6,0.1,0.7
				c-0.6,0.1-1,0.5-0.9,1c0.2,1,1.9,2.5,6.3,2.5c0,0,0,0,0,0c1.3,0,2.6-0.6,2.6-0.6s-2-0.4-2.8-1c0,0,1.7-1.3,1.9-1.8
				C14,9,12.3,9,10.8,8.7c-0.9-0.4-1.6-1-2-1.7C8.7,4.6,7.4,4.3,6.6,4.3S4.8,5.3,4,5.8c0.5,0.6,1.6,1,1.6,2.5c0,3.6,1.7,4.6,2.8,4.8
				c0,1.6-0.3,2.8-1,3.9c1,0.3,1.9-0.6,2.3-1c0.5,0.6,1,1,2.3,1.3c-0.5-0.6-0.9-2.3-0.9-3.6c0.9,0.5,3,2.6,3.9,3.9
				c0-0.4,0-1.6-0.1-2.6C15.5,14.7,16.2,14.3,17.1,13.2z M6.6,5.8c0,0-0.2,0.2-0.4,0.2C6,6,5.8,6,5.6,5.8L5.5,5.7l0.1-0.1
				c0,0,0.1-0.2,0.3-0.2c0.2,0,0.4,0,0.6,0.2l0.2,0.1L6.6,5.8z"/>
			<path d="M29.5,13.2c-0.7,0.1-1.5,0.1-2.6-0.3c-5,0.2-7.2-1.6-7.4-3c-0.1-0.9,0.4-1.6,1.4-1.8c0.4-0.1,0.6,0.6,0.1,0.7
				c-0.6,0.1-1,0.5-0.9,1c0.2,1,1.9,2.5,6.3,2.5c0,0,0,0,0,0c1.3,0,2.6-0.6,2.6-0.6s-2-0.4-2.8-1c0,0,1.7-1.3,1.9-1.8
				C26.4,9,24.7,9,23.2,8.7c-0.9-0.4-1.6-1-2-1.7C21,4.6,19.8,4.3,19,4.3c-0.8,0-1.7,1-2.6,1.5c0.5,0.6,1.6,1,1.6,2.5
				c0,3.6,1.7,4.6,2.8,4.8c0,1.6-0.3,2.8-1,3.9c1,0.3,1.9-0.6,2.3-1c0.5,0.6,1,1,2.3,1.3c-0.5-0.6-0.9-2.3-0.9-3.6
				c0.9,0.5,3,2.6,3.9,3.9c0-0.4,0-1.6-0.1-2.6C27.9,14.7,28.6,14.3,29.5,13.2z M18.9,5.8c0,0-0.2,0.2-0.4,0.2c-0.1,0-0.3,0-0.5-0.2
				l-0.1-0.1l0.1-0.1c0,0,0.1-0.2,0.3-0.2c0.2,0,0.4,0,0.6,0.2l0.2,0.1L18.9,5.8z"/>
			<path d="M41.8,13.2c-0.7,0.1-1.5,0.1-2.6-0.3c-5,0.2-7.2-1.6-7.4-3c-0.1-0.9,0.4-1.6,1.4-1.8c0.4-0.1,0.6,0.6,0.1,0.7
				c-0.6,0.1-1,0.5-0.9,1c0.2,1,1.9,2.5,6.3,2.5c0,0,0,0,0,0c1.3,0,2.6-0.6,2.6-0.6s-2-0.4-2.8-1c0,0,1.7-1.3,1.9-1.8
				C38.7,9,37,9,35.5,8.7c-0.9-0.4-1.6-1-2-1.7c-0.1-2.5-1.4-2.7-2.2-2.7c-0.8,0-1.7,1-2.6,1.5c0.5,0.6,1.6,1,1.6,2.5
				c0,3.6,1.7,4.6,2.8,4.8c0,1.6-0.3,2.8-1,3.9c1,0.3,1.9-0.6,2.3-1c0.5,0.6,1,1,2.3,1.3c-0.5-0.6-0.9-2.3-0.9-3.6
				c0.9,0.5,3,2.6,3.9,3.9c0-0.4,0-1.6-0.1-2.6C40.2,14.7,40.9,14.3,41.8,13.2z M31.3,5.8c0,0-0.2,0.2-0.4,0.2c-0.1,0-0.3,0-0.5-0.2
				l-0.1-0.1l0.1-0.1c0,0,0.1-0.2,0.3-0.2c0.2,0,0.4,0,0.6,0.2l0.2,0.1L31.3,5.8z"/>
		</g>
	</g>
</g>
</svg>
