<?xml version="1.0" standalone="no"?>
<!DOCTYPE svg PUBLIC "-//W3C//DTD SVG 20010904//EN"
 "http://www.w3.org/TR/2001/REC-SVG-20010904/DTD/svg10.dtd">
<svg version="1.0" xmlns="http://www.w3.org/2000/svg"
 width="1250.000000pt" height="1250.000000pt" viewBox="0 0 1250.000000 1250.000000"
 preserveAspectRatio="xMidYMid meet">
<metadata>
Created by potrace 1.11, written by Peter Selinger 2001-2013
</metadata>
<g transform="translate(0.000000,1250.000000) scale(0.100000,-0.100000)"
fill="#000000" stroke="none">
<path d="M6447 12444 c-1 -1 -58 -5 -127 -9 -189 -10 -374 -27 -450 -40 -8 -1
-40 -6 -70 -10 -74 -9 -268 -42 -360 -61 -41 -9 -85 -18 -97 -20 -253 -49
-794 -215 -990 -305 -24 -10 -45 -19 -48 -19 -4 0 -25 -8 -48 -19 -23 -10 -76
-33 -117 -51 -150 -65 -487 -239 -620 -320 -8 -5 -40 -23 -70 -41 -74 -43
-265 -169 -375 -248 -109 -78 -238 -173 -245 -181 -3 -3 -27 -24 -55 -45 -203
-162 -435 -378 -671 -626 -96 -101 -335 -390 -409 -493 -11 -15 -33 -44 -48
-64 -60 -77 -278 -413 -352 -542 -219 -382 -380 -738 -518 -1150 -45 -135
-125 -407 -142 -487 -2 -10 -13 -61 -25 -113 -26 -121 -47 -225 -54 -270 -3
-19 -8 -46 -11 -60 -2 -13 -7 -42 -10 -65 -3 -22 -10 -67 -15 -100 -11 -76
-21 -162 -35 -300 -26 -257 -26 -984 -1 -1121 2 -10 7 -54 11 -97 3 -43 8 -88
10 -100 2 -12 6 -44 10 -72 3 -27 9 -66 11 -85 6 -42 32 -195 39 -230 3 -14 8
-38 10 -55 11 -64 57 -264 81 -355 13 -52 27 -103 29 -113 18 -78 115 -374
173 -529 182 -482 500 -1076 768 -1431 24 -31 44 -59 44 -62 0 -3 9 -15 19
-27 10 -13 65 -81 122 -153 57 -71 115 -143 129 -160 423 -480 801 -816 1280
-1137 312 -209 614 -374 977 -533 81 -36 102 -45 168 -70 39 -15 84 -33 100
-40 47 -21 410 -141 510 -169 102 -28 317 -82 355 -89 14 -3 71 -14 128 -26
57 -11 133 -26 170 -31 37 -6 78 -13 92 -15 97 -15 258 -35 325 -41 44 -3 88
-8 98 -10 133 -25 963 -24 1182 1 17 2 66 6 110 10 44 3 91 8 105 10 14 2 56
6 93 10 37 3 77 8 87 10 10 2 43 6 72 9 29 4 62 8 73 10 11 2 43 7 70 10 28 4
75 11 105 16 30 5 75 12 100 15 91 12 471 85 660 127 74 16 146 32 159 34 129
25 703 181 976 265 145 45 556 181 595 198 14 5 77 28 140 51 63 22 122 43
130 47 8 3 17 7 20 8 10 3 47 18 200 77 211 81 403 160 414 169 9 8 2 30 -35
114 -9 22 -103 245 -208 494 -105 250 -194 457 -197 460 -5 5 -6 5 -159 -59
-55 -23 -170 -68 -255 -101 -85 -33 -164 -63 -175 -68 -77 -34 -544 -194 -774
-266 -200 -62 -589 -172 -671 -190 -8 -2 -49 -12 -90 -24 -66 -18 -445 -103
-510 -115 -14 -2 -86 -15 -160 -29 -120 -23 -164 -30 -235 -42 -17 -3 -165
-25 -265 -40 -14 -2 -52 -7 -85 -10 -33 -4 -67 -8 -75 -10 -8 -3 -46 -7 -85
-10 -92 -7 -169 -16 -175 -20 -32 -20 -32 -13 -32 2211 1 1210 1 2209 1 2220
1 21 6 22 99 24 53 1 122 3 152 5 30 2 109 6 175 10 271 15 605 44 805 70 19
2 58 7 85 11 28 3 57 8 66 9 9 2 40 6 70 10 30 3 77 10 104 15 55 10 103 18
153 25 18 3 110 21 205 41 703 146 1235 353 1682 655 55 37 111 76 125 87 14
11 61 49 105 84 168 133 396 381 523 570 188 279 324 598 404 943 35 154 34
145 43 215 4 30 9 62 10 70 6 33 15 109 21 175 3 39 8 88 10 110 5 51 5 519
-1 565 -2 19 -7 73 -10 120 -4 46 -8 87 -10 90 -2 3 -6 34 -10 70 -4 36 -9 68
-10 71 -2 3 -7 28 -11 55 -10 78 -69 309 -110 429 -209 624 -613 1126 -1189
1479 -60 37 -117 71 -125 76 -59 37 -380 188 -495 233 -130 51 -379 133 -520
172 -33 9 -74 20 -90 25 -45 14 -374 87 -425 95 -25 4 -47 8 -50 10 -3 1 -27
6 -55 9 -27 4 -57 9 -65 11 -22 7 -334 53 -405 60 -33 4 -67 8 -75 10 -8 2
-51 7 -95 11 -44 3 -87 7 -96 9 -8 2 -55 6 -105 10 -49 3 -96 8 -104 10 -8 2
-64 7 -125 10 -60 3 -135 8 -165 10 -74 6 -229 13 -435 21 -163 6 -852 13
-858 8z m998 -1179 c94 -3 190 -8 215 -9 25 -2 88 -6 140 -10 52 -3 119 -8
148 -11 28 -3 78 -7 110 -10 127 -12 170 -17 247 -26 137 -17 158 -20 215 -29
30 -5 78 -12 105 -15 28 -4 57 -8 65 -10 8 -2 31 -7 50 -10 19 -3 103 -19 185
-36 83 -17 159 -32 170 -35 58 -11 328 -89 427 -123 521 -178 892 -428 1109
-746 126 -185 227 -448 264 -685 4 -25 9 -53 11 -62 19 -107 26 -538 11 -698
-9 -89 -50 -310 -69 -370 -97 -304 -205 -489 -397 -681 -194 -193 -411 -331
-720 -458 -195 -80 -579 -197 -716 -218 -16 -2 -47 -9 -68 -14 -58 -15 -264
-52 -407 -73 -144 -21 -331 -43 -420 -51 -30 -3 -77 -7 -105 -10 -75 -7 -171
-15 -260 -20 -44 -3 -111 -7 -150 -10 -191 -14 -355 -16 -356 -3 0 16 0 4326
0 4390 1 33 5 46 14 43 6 -2 89 -6 182 -10z m-1360 -5025 l0 -5005 -25 0 c-14
-1 -43 2 -65 6 -22 4 -62 10 -90 13 -59 7 -84 11 -188 32 -42 8 -90 18 -105
20 -15 3 -88 20 -162 39 -787 196 -1474 555 -2104 1100 -175 150 -441 427
-597 620 -289 357 -564 810 -713 1175 -15 36 -31 74 -36 85 -70 151 -228 652
-255 808 -4 18 -12 61 -20 97 -8 36 -22 108 -30 160 -9 52 -18 106 -20 120 -5
26 -8 57 -25 210 -34 309 -32 783 5 1090 5 39 13 104 30 226 11 77 60 312 91
439 174 696 507 1362 957 1920 260 321 578 630 900 873 101 76 295 212 303
212 3 0 24 13 47 29 23 16 58 38 77 49 19 10 76 43 125 72 421 245 955 446
1465 550 131 27 137 28 180 34 19 3 55 8 80 12 126 19 146 22 160 20 13 -1 15
-565 15 -5006z"/>
</g>
</svg>
