<?xml version="1.0" encoding="utf-8"?>
<!-- Generator: Adobe Illustrator 22.1.0, SVG Export Plug-In . SVG Version: 6.00 Build 0)  -->
<svg version="1.1" id="Layer_1" xmlns="http://www.w3.org/2000/svg" xmlns:xlink="http://www.w3.org/1999/xlink" x="0px" y="0px"
	 viewBox="0 0 59 86.7" style="enable-background:new 0 0 59 86.7;" xml:space="preserve">
<style type="text/css">
	.st0{fill:#FFFFFF;}
	.st1{fill:none;}
</style>
<g>
	<g>
		<path d="M3.2,64.3v5.1c0,1.7,0.7,2.5,1.8,2.5c1.2,0,1.8-0.8,1.8-2.5v-5.1h1.6v5c0,2.7-1.4,3.9-3.5,3.9c-2,0-3.3-1.1-3.3-3.9v-5
			H3.2z"/>
		<path d="M10.2,68.6c0-0.7,0-1.3-0.1-1.9h1.4l0.1,0.9h0c0.3-0.5,1-1.1,2-1.1c1.1,0,2.3,0.7,2.3,2.7V73h-1.6v-3.6
			c0-0.9-0.3-1.6-1.2-1.6c-0.6,0-1.1,0.5-1.2,0.9c0,0.1-0.1,0.3-0.1,0.5V73h-1.6V68.6z"/>
		<path d="M17.6,73v-6.3h1.6V73H17.6z M18.4,65.7c-0.6,0-0.9-0.4-0.9-0.9c0-0.5,0.4-0.9,0.9-0.9c0.6,0,0.9,0.4,0.9,0.9
			C19.4,65.3,19,65.7,18.4,65.7L18.4,65.7z"/>
		<path d="M22,66.7l1,3.2c0.2,0.6,0.3,1.1,0.4,1.6h0c0.1-0.5,0.3-1,0.4-1.6l1-3.2h1.7L24.2,73h-1.6l-2.3-6.3H22z"/>
		<path d="M28.5,69.2c0.1-0.6,0.5-1.5,1.5-1.5c1.1,0,1.3,1,1.3,1.5H28.5z M32.7,70.3c0-0.1,0.1-0.4,0.1-0.7c0-1.4-0.7-3.1-2.7-3.1
			c-2,0-3.1,1.7-3.1,3.4c0,1.9,1.2,3.2,3.3,3.2c0.9,0,1.7-0.2,2.2-0.4l-0.2-1.1c-0.5,0.2-1,0.3-1.7,0.3c-1,0-1.9-0.5-2-1.6
			L32.7,70.3z"/>
		<path d="M34.1,68.8c0-0.8,0-1.5-0.1-2h1.4l0.1,1.2h0c0.3-0.9,1-1.3,1.7-1.3c0.2,0,0.2,0,0.4,0v1.5c-0.2,0-0.3,0-0.5,0
			c-0.8,0-1.3,0.5-1.4,1.2c0,0.1,0,0.3,0,0.5V73h-1.6L34.1,68.8z"/>
		<path d="M38.6,71.6c0.4,0.2,1,0.5,1.6,0.5c0.7,0,1-0.3,1-0.7c0-0.4-0.3-0.6-1-0.9c-1.2-0.4-1.8-1.1-1.7-1.8c0-1.1,0.9-2,2.4-2
			c0.7,0,1.3,0.2,1.7,0.4l-0.3,1.1c-0.3-0.2-0.8-0.4-1.3-0.4c-0.6,0-0.9,0.3-0.9,0.7c0,0.4,0.3,0.6,1.1,0.9c1.2,0.4,1.7,1,1.7,1.9
			c0,1.2-0.9,2-2.6,2c-0.8,0-1.5-0.2-1.9-0.4L38.6,71.6z"/>
		<path d="M44.1,73v-6.3h1.6V73H44.1z M44.9,65.7c-0.6,0-0.9-0.4-0.9-0.9c0-0.5,0.4-0.9,0.9-0.9c0.6,0,0.9,0.4,0.9,0.9
			C45.9,65.3,45.5,65.7,44.9,65.7L44.9,65.7z"/>
		<path d="M49.6,65.1v1.6h1.5v1.2h-1.5v2.8c0,0.8,0.2,1.2,0.8,1.2c0.3,0,0.4,0,0.6-0.1l0,1.2c-0.2,0.1-0.7,0.2-1.2,0.2
			c-0.6,0-1.1-0.2-1.4-0.5c-0.3-0.4-0.5-0.9-0.5-1.8v-3h-0.9v-1.2H48v-1.2L49.6,65.1z"/>
		<path d="M53.6,66.7l1.1,3.4c0.1,0.4,0.3,0.9,0.4,1.2h0c0.1-0.4,0.2-0.8,0.3-1.2l1-3.4h1.7L56.6,71c-0.9,2.4-1.5,3.4-2.2,4.1
			c-0.6,0.5-1.3,0.8-1.7,0.8l-0.4-1.3c0.3-0.1,0.6-0.2,0.9-0.4c0.3-0.2,0.7-0.6,0.9-1c0.1-0.1,0.1-0.2,0.1-0.3c0-0.1,0-0.2-0.1-0.3
			l-2.3-5.8H53.6z"/>
		<path d="M4.4,84.5c-1,0-1.6-0.9-1.6-2.1c0-1.1,0.5-2.2,1.6-2.2c1.1,0,1.5,1.1,1.5,2.1C5.9,83.7,5.3,84.5,4.4,84.5L4.4,84.5z
			 M4.3,85.7c1.6,0,3.2-1,3.2-3.4c0-1.9-1.3-3.2-3.1-3.2c-1.9,0-3.3,1.3-3.3,3.4C1.2,84.5,2.5,85.7,4.3,85.7L4.3,85.7z"/>
		<path d="M9.1,85.6v-5.1H8.2v-1.2h0.9V79c0-0.8,0.2-1.6,0.8-2.2c0.5-0.4,1.1-0.6,1.7-0.6c0.4,0,0.8,0.1,1,0.2l-0.1,1.2
			c-0.2-0.1-0.4-0.1-0.7-0.1c-0.8,0-1.1,0.7-1.1,1.4v0.3h1.4v1.2h-1.4v5.1H9.1z"/>
		<path d="M17.9,85.6l-2.8-8.8h1.7l1.2,4c0.3,1.1,0.6,2.1,0.9,3.2h0c0.2-1,0.5-2.1,0.9-3.2l1.3-4h1.7l-3,8.8H17.9z"/>
		<path d="M23.7,85.6v-6.3h1.6v6.3H23.7z M24.5,78.3c-0.6,0-0.9-0.4-0.9-0.9c0-0.5,0.4-0.9,0.9-0.9c0.6,0,0.9,0.4,0.9,0.9
			C25.5,77.9,25.1,78.3,24.5,78.3L24.5,78.3z"/>
		<path d="M31.7,85.4c-0.3,0.2-1,0.3-1.8,0.3c-2,0-3.3-1.3-3.3-3.2c0-1.9,1.3-3.4,3.5-3.4c0.6,0,1.2,0.1,1.5,0.3l-0.3,1.2
			c-0.3-0.1-0.6-0.2-1.2-0.2c-1.2,0-1.9,0.9-1.9,2.1c0,1.3,0.9,2,1.9,2c0.5,0,0.9-0.1,1.3-0.3L31.7,85.4z"/>
		<path d="M34.9,77.6v1.6h1.5v1.2h-1.5v2.8c0,0.8,0.2,1.2,0.8,1.2c0.3,0,0.4,0,0.6-0.1l0,1.2c-0.2,0.1-0.7,0.2-1.2,0.2
			c-0.6,0-1.1-0.2-1.4-0.5c-0.3-0.4-0.5-0.9-0.5-1.8v-3h-0.9v-1.2h0.9v-1.2L34.9,77.6z"/>
		<path d="M40.4,84.5c-1,0-1.6-0.9-1.6-2.1c0-1.1,0.5-2.2,1.6-2.2c1.1,0,1.5,1.1,1.5,2.1C41.9,83.7,41.3,84.5,40.4,84.5L40.4,84.5z
			 M40.3,85.7c1.6,0,3.2-1,3.2-3.4c0-1.9-1.3-3.2-3.1-3.2c-1.9,0-3.3,1.3-3.3,3.4C37.2,84.5,38.5,85.7,40.3,85.7L40.3,85.7z"/>
		<path d="M44.9,81.3c0-0.8,0-1.5-0.1-2h1.4l0.1,1.2h0c0.3-0.9,1-1.3,1.7-1.3c0.2,0,0.2,0,0.4,0v1.5c-0.2,0-0.3,0-0.5,0
			c-0.8,0-1.3,0.5-1.4,1.2c0,0.1,0,0.3,0,0.5v3.3h-1.6L44.9,81.3z"/>
		<path d="M49.5,85.6v-6.3h1.6v6.3H49.5z M50.3,78.3c-0.6,0-0.9-0.4-0.9-0.9c0-0.5,0.4-0.9,0.9-0.9c0.6,0,0.9,0.4,0.9,0.9
			C51.3,77.9,50.9,78.3,50.3,78.3L50.3,78.3z"/>
		<path d="M56.2,83.3c0,0.1,0,0.2,0,0.3c-0.2,0.5-0.6,0.9-1.3,0.9c-0.5,0-0.9-0.3-0.9-0.9c0-1,1.1-1.2,2.2-1.2V83.3z M57.8,81.8
			c0-1.4-0.6-2.7-2.6-2.7c-1,0-1.8,0.3-2.3,0.6l0.3,1c0.4-0.3,1.1-0.5,1.7-0.5c1.1,0,1.3,0.7,1.3,1.1v0.1c-2.3,0-3.8,0.8-3.8,2.4
			c0,1,0.7,1.9,2,1.9c0.8,0,1.5-0.3,1.9-0.8h0l0.1,0.7h1.4c-0.1-0.4-0.1-0.9-0.1-1.5V81.8z"/>
	</g>
	<g>
		<polygon class="st0" points="8.3,1.2 8.3,28.8 9,35.4 11.8,41.9 16.1,46.9 21.4,51.1 26,53.1 29.3,53.9 33,53.3 37.6,51.5 
			40.9,49 44.1,46.1 47.4,41.7 49.2,38 50.4,34 50.7,30.3 50.7,26.6 50.7,1.1 		"/>
		<g>
			<path class="st1" d="M15.5,45.7c0,0,0.1,0.1,0.1,0.1h27.8c0,0,0.1-0.1,0.1-0.1c0.3-0.3,0.5-0.6,0.7-0.8H14.7
				C15,45.2,15.2,45.5,15.5,45.7z"/>
			<path class="st1" d="M50,1.8c-1.1,0-40,0-41.1,0c0,0.7,0,10.1,0,17.8H50C50,11.9,50,2.4,50,1.8z"/>
			<path class="st1" d="M21.8,50.8c0.1,0,0.1,0.1,0.2,0.1h14.9c0.1,0,0.1-0.1,0.2-0.1c0.4-0.3,0.9-0.5,1.3-0.8h-18
				C20.9,50.3,21.4,50.6,21.8,50.8z"/>
		</g>
		<g>
			<path d="M42.5,25.4h0.3c-0.1-0.1-0.2-0.2-0.3-0.3L42.5,25.4z"/>
			<path d="M16.5,25.1c-0.1,0.1-0.2,0.2-0.3,0.3h0.3L16.5,25.1z"/>
			<path d="M50.6,0.6H7.7v19.9v0.1v4.3v0.3v0.7v0.2v2.8v0.7c0,0.1,0,0.2,0,0.3c0,1.1,0.1,2.2,0.3,3.3c0,0.3,0.1,0.6,0.2,1
				c0.2,0.9,0.4,1.7,0.6,2.5C8.8,36.7,8.9,37,9,37.2c0.1,0.3,0.2,0.6,0.4,1c0.2,0.5,0.4,1.1,0.7,1.6c0.2,0.3,0.3,0.6,0.5,0.9
				c0.1,0.2,0.3,0.5,0.4,0.7c0.2,0.3,0.4,0.6,0.6,1c0.5,0.9,1.1,1.7,1.8,2.5c0.2,0.3,0.5,0.6,0.7,0.8c0,0,0.1,0.1,0.1,0.1
				c0.2,0.3,0.5,0.5,0.7,0.8c1.1,1.2,2.4,2.3,3.6,3.3c0.1,0,0.1,0.1,0.2,0.1c0.4,0.3,0.8,0.6,1.2,0.8c0.1,0,0.1,0.1,0.2,0.1
				c1.4,1,2.9,1.7,4.3,2.3c0.9,0.4,1.7,0.6,2.5,0.8c1,0.3,2,0.4,2.8,0.4c0.9,0,1.8-0.1,2.8-0.4c0.8-0.2,1.7-0.5,2.5-0.8
				c1.4-0.6,2.8-1.4,4.3-2.3c0.1,0,0.1-0.1,0.2-0.1c0.4-0.3,0.8-0.5,1.2-0.8c0.1,0,0.1-0.1,0.2-0.1c1.2-1,2.5-2,3.6-3.3
				c0.2-0.3,0.5-0.5,0.7-0.8c0,0,0.1-0.1,0.1-0.1c0.2-0.3,0.5-0.6,0.7-0.8c0.6-0.8,1.2-1.6,1.8-2.5c0.2-0.3,0.4-0.6,0.6-1
				c0.1-0.2,0.3-0.5,0.4-0.7c0.2-0.3,0.3-0.6,0.5-0.9c0.2-0.5,0.5-1.1,0.7-1.6c0.1-0.3,0.2-0.6,0.3-1c0.1-0.3,0.2-0.7,0.3-1
				c0.2-0.7,0.4-1.5,0.5-2.3c0.1-0.3,0.1-0.6,0.2-1c0.2-1.1,0.2-2.1,0.3-3.3c0-0.1,0-0.2,0-0.3v-0.7v-2.8v-0.2v-0.7v-0.3v-4.3v-0.1
				V0.6H50.6z M8.9,24.8c0-0.1,0-0.2,0-0.4H16c-0.2,0.3-0.6,0.6-1,1H8.9V24.8z M44.8,29.5c0,0.3,0,0.6,0,0.9
				c-0.1,1.3-0.1,2.7-0.2,4.2c0,0.3,0,0.6,0,1c-0.1,1.6-0.1,3-0.2,4.2c0,0.4,0,0.7,0,0.9c0,0.6,0,0.9-0.1,1c-1.6,0.2-9.3,1.2-12.8-1
				c-0.4-0.2-0.7-0.5-1-0.8c0,0-0.1-0.1-0.1-0.1c-0.5-0.6-0.6-1.3-0.6-1.3s0.3-0.5,0.8-0.7c0.9-0.6,3-1.2,6.7,1.3
				c0,0,0.7,0.5,1.7,0.8c0.8,0.3,1.8,0.4,2.8,0c0.1,0,0.2-0.1,0.3-0.1l0.2-0.1l0.1-4l0-1l0.1-4.2l0-0.9l0.1-4.2l0-0.3
				c0.1,0.1,0.2,0.2,0.3,0.3c0.5,0.5,1.2,1.1,2.2,1.6C44.9,27.1,44.8,28.1,44.8,29.5z M32.2,42.1c-0.4,0.8-1.3,1.2-2.7,1.2
				c0,0,0,0,0,0v0c-1.4,0-2.3-0.5-2.7-1.2c0.9-0.4,1.6-0.9,2.1-1.4h0c0.3-0.2,0.5-0.5,0.7-0.8c0.2,0.3,0.4,0.6,0.7,0.8h0
				C30.7,41.2,31.4,41.7,32.2,42.1z M14.2,29.5c-0.1-1.4-0.1-2.5-0.1-2.6c0.9-0.4,1.6-1,2.2-1.6c0.1-0.1,0.2-0.2,0.3-0.3l0,0.3
				l0.1,4.2l0,0.9l0.1,4.2l0,1l0.1,4l0.2,0.1c0.1,0,0.2,0.1,0.3,0.1c1,0.4,2,0.3,2.8,0c1-0.3,1.7-0.8,1.7-0.8
				c3.7-2.5,5.8-1.9,6.7-1.3c0.5,0.3,0.8,0.7,0.8,0.7s-0.2,0.7-0.6,1.4c0,0-0.1,0.1-0.1,0.1c-0.3,0.3-0.6,0.6-1,0.8
				c-3.5,2.2-11.2,1.3-12.8,1c0-0.1,0-0.5,0-1c0-0.3,0-0.6,0-0.9c-0.1-1.1-0.1-2.6-0.2-4.2c0-0.3,0-0.6,0-1
				c-0.1-1.4-0.1-2.9-0.2-4.2C14.2,30.2,14.2,29.8,14.2,29.5z M17.3,24.6c1.4,0.5,2.6,0.3,3.5-0.1c0.8-0.3,1.4-0.8,1.5-0.9
				c4.2-2.6,6.4-0.2,6.8,0.3v0.6v1v4.2v0.9v4.2v1v1.5c-1.1-0.8-3.5-1.7-7.8,1.2c0,0-1.9,1.4-3.8,0.7c0-0.2,0-1.5-0.1-3.4
				c0-0.3,0-0.6,0-1c0-1.3-0.1-2.8-0.1-4.2c0-0.3,0-0.6,0-0.9c0-1.6-0.1-3.1-0.1-4.2C17.3,25.1,17.3,24.8,17.3,24.6z M29.9,37.1
				v-1.5v-1v-4.2v-0.9v-4.2v-1v-0.6c0.4-0.6,2.6-2.8,6.8-0.3c0.1,0.1,0.7,0.5,1.5,0.9c0.9,0.4,2.2,0.6,3.5,0.1c0,0.2,0,0.5,0,0.8
				c0,1,0,2.5-0.1,4.2c0,0.3,0,0.6,0,0.9c0,1.4-0.1,2.9-0.1,4.2c0,0.3,0,0.6,0,1c0,1.9-0.1,3.2-0.1,3.4c-1.9,0.7-3.8-0.7-3.8-0.7
				C33.4,35.5,31,36.3,29.9,37.1z M8.9,30.5c0-0.3,0-0.5,0-0.8c0-0.1,0-0.1,0-0.2h4.5l0,0.9H8.9z M9.7,35.6c-0.1-0.3-0.2-0.6-0.2-1
				h4.2l0,1H9.7z M11.8,40.7c-0.2-0.3-0.3-0.6-0.5-0.9h2.6l0,0.9H11.8z M37.1,50.8c-0.1,0-0.1,0.1-0.2,0.1H22
				c-0.1,0-0.1-0.1-0.2-0.1c-0.5-0.3-0.9-0.5-1.4-0.8h18C38,50.3,37.6,50.6,37.1,50.8z M43.5,45.7c0,0-0.1,0.1-0.1,0.1H15.6
				c0,0-0.1-0.1-0.1-0.1c-0.3-0.3-0.5-0.6-0.7-0.8h29.5C44,45.2,43.7,45.5,43.5,45.7z M47.1,40.7h-2l0-0.9h2.5
				C47.4,40.1,47.3,40.4,47.1,40.7z M49.2,35.6h-3.9l0-1h4.1C49.3,35,49.3,35.3,49.2,35.6z M50,29.7c0,0.3,0,0.5,0,0.8h-4.4l0-0.9
				H50C50,29.6,50,29.7,50,29.7z M50,24.8c0,0.1,0,0.2,0,0.3c0,0.1,0,0.2,0,0.3h-6.1c-0.4-0.3-0.7-0.7-1-1h7
				C50,24.6,50,24.7,50,24.8z M50,19.5H8.9c0-7.7,0-17.1,0-17.8c1.1,0,40,0,41.1,0C50,2.4,50,11.9,50,19.5z"/>
		</g>
		<g>
			<path d="M24.1,13.4c-0.7,0.1-1.5,0.1-2.6-0.3c-5,0.2-7.2-1.6-7.4-3c-0.1-0.9,0.4-1.6,1.4-1.8C16,8.3,16.1,8.9,15.7,9
				c-0.6,0.1-1,0.5-0.9,1c0.2,1,1.9,2.5,6.3,2.5c0,0,0,0,0,0c1.3,0,2.6-0.6,2.6-0.6s-2-0.4-2.8-1c0,0,1.7-1.3,1.9-1.8
				c-1.8,0.2-3.4,0.1-4.9-0.1c-0.9-0.4-1.6-1-2-1.7c-0.1-2.5-1.4-2.7-2.2-2.7c-0.8,0-1.7,1-2.6,1.5c0.5,0.6,1.6,1,1.6,2.5
				c0,3.6,1.7,4.6,2.8,4.8c0,1.6-0.3,2.8-1,3.9c1,0.3,1.9-0.6,2.3-1c0.5,0.6,1,1,2.3,1.3c-0.5-0.6-0.9-2.3-0.9-3.6
				c0.9,0.5,3,2.6,3.9,3.9c0-0.4,0-1.6-0.1-2.6C22.5,14.8,23.3,14.4,24.1,13.4z M13.6,5.9c0,0-0.2,0.2-0.4,0.2c-0.1,0-0.3,0-0.5-0.2
				l-0.1-0.1l0.1-0.1c0,0,0.1-0.2,0.3-0.2c0.2,0,0.4,0,0.6,0.2l0.2,0.1L13.6,5.9z"/>
			<path d="M36.5,13.4c-0.7,0.1-1.5,0.1-2.6-0.3c-5,0.2-7.2-1.6-7.4-3c-0.1-0.9,0.4-1.6,1.4-1.8C28.3,8.3,28.5,8.9,28,9
				c-0.6,0.1-1,0.5-0.9,1c0.2,1,1.9,2.5,6.3,2.5c0,0,0,0,0,0c1.3,0,2.6-0.6,2.6-0.6s-2-0.4-2.8-1c0,0,1.7-1.3,1.9-1.8
				c-1.8,0.2-3.5,0.1-4.9-0.1c-0.9-0.4-1.6-1-2-1.7c-0.1-2.5-1.4-2.7-2.2-2.7c-0.8,0-1.7,1-2.6,1.5C24,6.5,25,6.9,25,8.4
				c0,3.6,1.7,4.6,2.8,4.8c0,1.6-0.3,2.8-1,3.9c1,0.3,1.9-0.6,2.3-1c0.5,0.6,1,1,2.3,1.3c-0.5-0.6-0.9-2.3-0.9-3.6
				c0.9,0.5,3,2.6,3.9,3.9c0-0.4,0-1.6-0.1-2.6C34.9,14.8,35.6,14.4,36.5,13.4z M26,5.9c0,0-0.2,0.2-0.4,0.2c-0.1,0-0.3,0-0.5-0.2
				l-0.1-0.1L25,5.7c0,0,0.1-0.2,0.3-0.2c0.2,0,0.4,0,0.6,0.2l0.2,0.1L26,5.9z"/>
			<path d="M48.8,13.4c-0.7,0.1-1.5,0.1-2.6-0.3c-5,0.2-7.2-1.6-7.4-3c-0.1-0.9,0.4-1.6,1.4-1.8c0.4-0.1,0.6,0.6,0.1,0.7
				c-0.6,0.1-1,0.5-0.9,1c0.2,1,1.9,2.5,6.3,2.5c0,0,0,0,0,0c1.3,0,2.6-0.6,2.6-0.6s-2-0.4-2.8-1c0,0,1.7-1.3,1.9-1.8
				c-1.8,0.2-3.4,0.1-4.9-0.1c-0.9-0.4-1.6-1-2-1.7c-0.1-2.5-1.4-2.7-2.2-2.7c-0.8,0-1.7,1-2.6,1.5c0.5,0.6,1.6,1,1.6,2.5
				c0,3.6,1.7,4.6,2.8,4.8c0,1.6-0.3,2.8-1,3.9c1,0.3,1.9-0.6,2.3-1c0.5,0.6,1,1,2.3,1.3c-0.5-0.6-0.9-2.3-0.9-3.6
				c0.9,0.5,3,2.6,3.9,3.9c0-0.4,0-1.6-0.1-2.6C47.2,14.8,48,14.4,48.8,13.4z M38.3,5.9c0,0-0.2,0.2-0.4,0.2c-0.1,0-0.3,0-0.5-0.2
				l-0.1-0.1l0.1-0.1c0,0,0.1-0.2,0.3-0.2c0.2,0,0.4,0,0.6,0.2l0.2,0.1L38.3,5.9z"/>
		</g>
	</g>
</g>
</svg>
